HIERARCHY
ROOT hip
{
	OFFSET 0.000000 0.000000 0.000000
	CHANNELS 6 Xposition Yposition Zposition Xrotation Zrotation Yrotation 
	JOINT abdomen
	{
		OFFSET 0.000000 3.422050 0.000000
		CHANNELS 3 Xrotation Zrotation Yrotation 
		JOINT chest
		{
			OFFSET 0.000000 8.486693 -0.684411
			CHANNELS 3 Xrotation Zrotation Yrotation 
			JOINT neck
			{
				OFFSET 0.000000 10.266162 -0.273764
				CHANNELS 3 Xrotation Zrotation Yrotation 
				JOINT head
				{
					OFFSET 0.000000 3.148285 0.000000
					CHANNELS 3 Xrotation Zrotation Yrotation 
					End Site
					{
						OFFSET 0.000000 3.148289 0.000000
					}
				}
			}
			JOINT lCollar
			{
				OFFSET 3.422053 6.707223 -0.821293
				CHANNELS 3 Yrotation Zrotation Xrotation 
				JOINT lShldr
				{
					OFFSET 3.285171 0.000000 0.000000
					CHANNELS 3 Zrotation Yrotation Xrotation 
					JOINT lForeArm
					{
						OFFSET 10.129278 0.000000 0.000000
						CHANNELS 3 Yrotation Zrotation Xrotation 
						JOINT lHand
						{
							OFFSET 8.486692 0.000000 0.000000
							CHANNELS 3 Zrotation Yrotation Xrotation 
							End Site
							{
								OFFSET 4.106464 0.000000 0.000000
							}
						}
					}
				}
			}
			JOINT rCollar
			{
				OFFSET -3.558935 6.707223 -0.821293
				CHANNELS 3 Yrotation Zrotation Xrotation 
				JOINT rShldr
				{
					OFFSET -3.148289 0.000000 0.000000
					CHANNELS 3 Zrotation Yrotation Xrotation 
					JOINT rForeArm
					{
						OFFSET -10.266159 0.000000 0.000000
						CHANNELS 3 Yrotation Zrotation Xrotation 
						JOINT rHand
						{
							OFFSET -8.349810 0.000000 0.000000
							CHANNELS 3 Zrotation Yrotation Xrotation 
							End Site
							{
								OFFSET -4.106464 0.000000 0.000000
							}
						}
					}
				}
			}
		}
	}
	JOINT lThigh
	{
		OFFSET 5.338403 -1.642589 1.368821
		CHANNELS 3 Xrotation Zrotation Yrotation 
		JOINT lShin
		{
			OFFSET -2.053232 -20.121670 0.000000
			CHANNELS 3 Xrotation Zrotation Yrotation 
			JOINT lFoot
			{
				OFFSET 0.000000 -19.300380 -1.231939
				CHANNELS 3 Xrotation Yrotation Zrotation 
				End Site
				{
					OFFSET 0.000000 -2.463878 4.653993
				}
			}
		}
	}
	JOINT rThigh
	{
		OFFSET -5.338403 -1.642589 1.368821
		CHANNELS 3 Xrotation Zrotation Yrotation 
		JOINT rShin
		{
			OFFSET 2.053232 -20.121670 0.000000
			CHANNELS 3 Xrotation Zrotation Yrotation 
			JOINT rFoot
			{
				OFFSET 0.000000 -19.300380 -1.231939
				CHANNELS 3 Xrotation Yrotation Zrotation 
				End Site
				{
					OFFSET 0.000000 -2.463878 4.653993
				}
			}
		}
	}
}
MOTION
Frames: 16
Frame Time: 0.033264
0.501617 16.253494 4.028027 -0.000327 3.798113 -90.009857 13.513783 -1.197916 -0.869522 19.052490 -0.326525 -0.429938 3.770447 2.826376 -9.095290 -36.311600 2.129381 -7.914369 -13.213385 -18.513533 -7.181906 -7.892029 -14.943216 4.068500 -26.050474 -36.308224 -19.564396 40.141979 -4.026079 -12.639750 13.187992 15.010473 -7.858920 44.312172 -1.167199 26.254932 25.561287 -32.561924 -14.577912 -24.125402 -16.124720 -3.925430 -118.521896 27.154358 -0.296103 116.232185 5.392993 -0.580282 -0.208075 0.000000 0.000000 -118.513725 -27.174747 0.286197 116.221832 -5.428535 0.569947 -0.204582 0.029697 0.015790 
0.501617 16.168337 4.028027 -0.000296 3.598128 -90.009453 13.663838 -1.197926 -0.869552 17.990808 -0.326545 -0.429912 3.752708 2.810769 -9.050185 -36.459564 1.720623 -7.943802 -12.900361 -18.800571 -6.849173 -7.892029 -14.943216 4.068500 -26.050474 -36.308224 -19.564396 39.794655 -3.847719 -11.960008 12.647477 14.916013 -7.476997 44.679474 -1.162972 26.271624 25.561281 -32.561924 -14.577912 -23.963650 -16.132549 -3.137244 -118.521896 27.154358 -0.296103 116.232185 5.392993 -0.580282 -0.208075 0.000000 0.000000 -118.513725 -27.174747 0.286197 116.221855 -5.428535 0.569947 -0.204582 0.029697 0.015790 
0.501617 16.083181 4.028027 -0.000267 3.398145 -90.009003 13.813895 -1.197936 -0.869582 16.929487 -0.326565 -0.429885 3.734957 2.795175 -9.005076 -36.607391 1.311480 -7.972192 -12.585070 -19.085863 -6.514241 -7.892029 -14.943216 4.068500 -26.050474 -36.308224 -19.564396 39.449604 -3.665298 -11.281624 12.107924 14.818089 -7.096223 45.046749 -1.158850 26.288340 25.561283 -32.561924 -14.577912 -23.802052 -16.142509 -2.349223 -118.521896 27.154358 -0.296103 116.232185 5.392993 -0.580282 -0.208075 0.000000 0.000000 -118.513725 -27.174747 0.286197 116.221848 -5.428535 0.569947 -0.204582 0.029697 0.015790 
0.501617 15.998026 4.028027 -0.000240 3.198167 -90.008591 13.963949 -1.197947 -0.869613 15.868711 -0.326584 -0.429857 3.717193 2.779595 -8.959961 -36.755108 0.901966 -7.999543 -12.267495 -19.369364 -6.177100 -7.892029 -14.943218 4.068500 -26.050474 -36.308224 -19.564396 39.106895 -3.478866 -10.604664 11.569384 14.716722 -6.716652 45.414009 -1.154839 26.305079 25.561287 -32.561924 -14.577912 -23.640663 -16.154610 -1.561447 -118.521896 27.154358 -0.296103 116.232185 5.392993 -0.580282 -0.208075 0.000000 0.000000 -118.513725 -27.174747 0.286197 116.221848 -5.428535 0.569947 -0.204582 0.029697 0.015790 
0.501617 15.912869 4.028027 -0.000214 2.998194 -90.008163 14.114002 -1.197956 -0.869643 14.808664 -0.326602 -0.429829 3.699417 2.764029 -8.914841 -36.902718 0.492097 -8.025854 -11.947647 -19.651052 -5.837755 -7.892029 -14.943216 4.068500 -26.050474 -36.308224 -19.564396 38.766609 -3.288478 -9.929209 11.031915 14.611933 -6.338340 45.781239 -1.150935 26.321844 25.561283 -32.561924 -14.577912 -23.479517 -16.168827 -0.774003 -118.521896 27.154358 -0.296103 116.232185 5.392993 -0.580282 -0.208075 0.000000 0.000000 -118.513725 -27.174747 0.286197 116.221848 -5.428535 0.569947 -0.204582 0.029697 0.015790 
0.501617 15.827713 4.028027 -0.000189 2.798226 -90.007759 14.264054 -1.197967 -0.869673 13.749528 -0.326620 -0.429801 3.681629 2.748477 -8.869719 -37.050228 0.081884 -8.051124 -11.625524 -19.930902 -5.496204 -7.892028 -14.943216 4.068500 -26.050474 -36.308224 -19.564396 38.428814 -3.094189 -9.255322 10.495570 14.503748 -5.961340 46.148430 -1.147138 26.338631 25.561283 -32.561924 -14.577912 -23.318663 -16.185156 0.013026 -118.521896 27.154358 -0.296103 116.232185 5.392993 -0.580282 -0.208075 0.000000 0.000000 -118.513725 -27.174747 0.286197 116.221848 -5.428535 0.569947 -0.204582 0.029697 0.015790 
0.501617 15.742558 4.028027 -0.000166 2.598265 -90.007317 14.414104 -1.197977 -0.869704 12.691476 -0.326638 -0.429773 3.663828 2.732939 -8.824590 -37.197670 -0.328657 -8.075354 -11.301113 -20.208870 -5.152441 -7.892029 -14.943218 4.068500 -26.050474 -36.308224 -19.564396 38.093559 -2.896058 -8.583070 9.960406 14.392196 -5.585706 46.515575 -1.143448 26.355442 25.561287 -32.561924 -14.577912 -23.158150 -16.203596 0.799560 -118.521896 27.154358 -0.296103 116.232185 5.392993 -0.580282 -0.208075 0.000000 0.000000 -118.513725 -27.174747 0.286197 116.221848 -5.428535 0.569947 -0.204582 0.029697 0.015790 
0.501617 15.657401 4.028027 -0.000145 2.398314 -90.006912 14.564146 -1.197986 -0.869734 11.634692 -0.326655 -0.429744 3.646015 2.717414 -8.779455 -37.345020 -0.739510 -8.098541 -10.974432 -20.484943 -4.806472 -7.892029 -14.943216 4.068500 -26.050474 -36.308224 -19.564396 37.760921 -2.694143 -7.912521 9.426471 14.277292 -5.211488 46.882683 -1.139869 26.372278 25.561283 -32.561928 -14.577912 -22.998026 -16.224140 1.585513 -118.521896 27.154358 -0.296103 116.232185 5.392993 -0.580282 -0.208075 0.000000 0.000000 -118.513725 -27.174747 0.286197 116.221848 -5.428535 0.569947 -0.204582 0.029697 0.015790 
0.501617 15.572245 4.028027 -0.000124 2.198371 -90.006485 14.714188 -1.197996 -0.869765 10.579348 -0.326671 -0.429715 3.628190 2.701903 -8.734316 -37.492317 -1.150663 -8.120688 -10.645470 -20.759071 -4.458293 -7.892029 -14.943216 4.068500 -26.050474 -36.308224 -19.564396 37.430965 -2.488503 -7.243738 8.893815 14.159068 -4.838736 47.249718 -1.136396 26.389130 25.561283 -32.561924 -14.577912 -22.838333 -16.246767 2.370806 -118.521896 27.154358 -0.296103 116.232185 5.392993 -0.580282 -0.208075 0.000000 0.000000 -118.513725 -27.174747 0.286197 116.221848 -5.428535 0.569947 -0.204582 0.029697 0.015790 
0.501617 15.487089 4.028027 -0.000106 1.998441 -90.006073 14.864222 -1.198006 -0.869795 9.525626 -0.326687 -0.429686 3.610353 2.686407 -8.689174 -37.639561 -1.562100 -8.141794 -10.314235 -21.031242 -4.107909 -7.892029 -14.943218 4.068500 -26.050474 -36.308224 -19.564396 37.103733 -2.279201 -6.576781 8.362492 14.037550 -4.467504 47.616680 -1.133032 26.405996 25.561287 -32.561924 -14.577912 -22.679108 -16.271465 3.155353 -118.521896 27.154358 -0.296103 116.232185 5.392993 -0.580282 -0.208075 0.000000 0.000000 -118.513725 -27.174747 0.286197 116.221848 -5.428535 0.569947 -0.204582 0.029697 0.015790 
0.501617 15.401934 4.028027 -0.000089 1.798522 -90.005653 15.014247 -1.198015 -0.869826 8.473694 -0.326703 -0.429657 3.592504 2.670923 -8.644025 -37.786770 -1.973808 -8.161856 -9.980721 -21.301403 -3.755318 -7.892029 -14.943216 4.068500 -26.050474 -36.308224 -19.564396 36.779289 -2.066301 -5.911710 7.832549 13.912768 -4.097836 47.983570 -1.129778 26.422884 25.561283 -32.561924 -14.577912 -22.520405 -16.298227 3.939075 -118.521896 27.154358 -0.296103 116.232185 5.392993 -0.580282 -0.208075 0.000000 0.000000 -118.513725 -27.174747 0.286197 116.221848 -5.428535 0.569947 -0.204582 0.029697 0.015790 
0.501617 15.316777 4.028027 -0.000073 1.598616 -90.005226 15.164273 -1.198025 -0.869856 7.423725 -0.326717 -0.429627 3.574642 2.655455 -8.598874 -37.933941 -2.385772 -8.180875 -9.644941 -21.569553 -3.400527 -7.892029 -14.943216 4.068500 -26.050474 -36.308224 -19.564396 36.457695 -1.849868 -5.248585 7.304032 13.784750 -3.729782 48.350388 -1.126632 26.439789 25.561283 -32.561924 -14.577912 -22.362267 -16.327032 4.721893 -118.521896 27.154358 -0.296103 116.232185 5.392993 -0.580282 -0.208075 0.000000 0.000000 -118.513725 -27.174747 0.286197 116.221848 -5.428535 0.569947 -0.204582 0.029697 0.015790 
0.501617 15.231621 4.028027 -0.000059 1.398725 -90.004807 15.314292 -1.198034 -0.869887 6.375897 -0.326731 -0.429597 3.556769 2.640000 -8.553717 -38.081093 -2.797976 -8.198846 -9.306891 -21.835638 -3.043535 -7.892028 -14.943216 4.068500 -26.050474 -36.308224 -19.564396 36.139008 -1.629968 -4.587462 6.776993 13.653528 -3.363391 48.717110 -1.123597 26.456709 25.561281 -32.561924 -14.577912 -22.204733 -16.357868 5.503724 -118.521896 27.154358 -0.296103 116.232185 5.392993 -0.580282 -0.208075 0.000000 0.000000 -118.513725 -27.174747 0.286197 116.221848 -5.428535 0.569947 -0.204582 0.029697 0.015790 
0.501617 15.146465 4.028027 -0.000046 1.198850 -90.004387 15.464303 -1.198044 -0.869917 5.330369 -0.326745 -0.429567 3.538884 2.624558 -8.508555 -38.228233 -3.210408 -8.215775 -8.966580 -22.099644 -2.684349 -7.892029 -14.943218 4.068500 -26.050474 -36.308224 -19.564396 35.823265 -1.406668 -3.928392 6.251472 13.519130 -2.998704 49.083729 -1.120668 26.473639 25.561283 -32.561924 -14.577912 -22.047850 -16.390715 6.284492 -118.521896 27.154358 -0.296103 116.232185 5.392993 -0.580282 -0.208075 0.000000 0.000000 -118.513725 -27.174747 0.286197 116.221855 -5.428535 0.569947 -0.204582 0.029697 0.015790 
0.501617 15.061309 4.028027 -0.000035 0.998992 -90.003967 15.614309 -1.198053 -0.869948 4.287311 -0.326758 -0.429537 3.520986 2.609131 -8.463389 -38.375381 -3.623049 -8.231652 -8.624011 -22.361536 -2.322971 -7.892029 -14.943216 4.068500 -26.050474 -36.308224 -19.564396 35.510525 -1.180037 -3.271432 5.727520 13.381592 -2.635769 49.450245 -1.117849 26.490591 25.561283 -32.561924 -14.577912 -21.891657 -16.425558 7.064115 -118.521896 27.154358 -0.296103 116.232185 5.392993 -0.580282 -0.208075 0.000000 0.000000 -118.513725 -27.174747 0.286197 116.221855 -5.428535 0.569947 -0.204582 0.029697 0.015790 
0.501617 14.976152 4.028027 -0.000025 0.799153 -90.003548 15.764306 -1.198063 -0.869979 3.246887 -0.326771 -0.429507 3.503076 2.593718 -8.418218 -38.522541 -4.035890 -8.246482 -8.279192 -22.621279 -1.959409 -7.892028 -14.943216 4.068500 -26.050474 -36.308224 -19.564396 35.200848 -0.950146 -2.616630 5.205180 13.240950 -2.274630 49.816650 -1.115140 26.507551 25.561283 -32.561928 -14.577912 -21.736195 -16.462374 7.842517 -118.521896 27.154358 -0.296103 116.232185 5.392993 -0.580282 -0.208075 0.000000 0.000000 -118.513725 -27.174749 0.286198 116.221848 -5.428535 0.569947 -0.204582 0.029697 0.015790 
